<?xml version="1.0" encoding="UTF-8" standalone="no"?>
<svg
   xmlns:dc="http://purl.org/dc/elements/1.1/"
   xmlns:cc="http://creativecommons.org/ns#"
   xmlns:rdf="http://www.w3.org/1999/02/22-rdf-syntax-ns#"
   xmlns:svg="http://www.w3.org/2000/svg"
   xmlns="http://www.w3.org/2000/svg"
   viewBox="0 0 679 321"
   height="321"
   width="679"
   xml:space="preserve"
   id="svg2"
   version="1.1"><metadata
     id="metadata8"><rdf:RDF><cc:Work
         rdf:about=""><dc:format>image/svg+xml</dc:format><dc:type
           rdf:resource="http://purl.org/dc/dcmitype/StillImage" /></cc:Work></rdf:RDF></metadata><defs
     id="defs6"><clipPath
       id="clipPath18"
       clipPathUnits="userSpaceOnUse"><path
         id="path16"
         d="M 0,240.75 H 509.25 V 0 H 0 Z" /></clipPath></defs><g
     transform="matrix(1.3333333,0,0,-1.3333333,0,321)"
     id="g10"><g
       id="g12"><g
         clip-path="url(#clipPath18)"
         id="g14"><g
           transform="translate(247.7632,162.4638)"
           id="g20"><path
             id="path22"
             style="fill:#000000;fill-opacity:1;fill-rule:nonzero;stroke:none"
             d="M 0,0 C -15.833,-1.708 -13.531,-27.219 3.46,-25.185 18.84,-23.343 17.814,1.921 0,0 M 91.528,-15.526 H 52.585 c 1.188,-13.1 18.01,-13.574 25.077,-4.69 l 12.782,-6.509 c -4.885,-12.074 -19.545,-14.57 -31.114,-14.59 7.059,-12.466 17.57,-23.314 30.944,-28.92 l 22.968,-9.583 c -8.631,0.35 -18.97,4.399 -27.368,4.505 -7.191,0.091 -19.297,-2.937 -26.372,-5.062 -12.764,-3.835 -26.394,-10.209 -35.973,-19.421 -1.118,-3.732 2.922,-17.184 4.517,-21.35 1.394,-3.639 8.58,-19.223 12.86,-18.548 7.093,7.386 25.214,23.974 35.457,24.547 4.11,0.229 18.995,-5.127 24.884,-6.19 33.775,-6.099 66.747,-1.051 78.097,35.708 1.82,5.895 2.431,11.915 4.686,17.753 7.026,18.192 25.542,32.252 43.042,39.649 l -8.985,6.342 c -4.712,20.768 -30.556,22.736 -45.288,10.829 -10.328,-8.348 -14.855,-21.748 -17.237,-34.373 -16.668,22.759 -41.097,35.168 -65.912,47.095 -0.215,-2.622 1.483,-5.224 1.797,-7.926 0.353,-3.044 -0.079,-6.212 0.081,-9.266 M 73.554,-5.058 c -0.979,11.972 -19.383,11.824 -20.22,0 z M 65.316,15.884 C 58.048,22.93 49.982,29.519 44.725,38.303 43.47,37.445 43.661,36.268 43.559,34.982 42.895,26.651 44.138,18.2 44.351,9.899 c 0.578,-0.658 4.458,2.665 5.478,3.121 4.772,2.135 10.271,3.114 15.487,2.864 m 66.652,10.834 c -0.68,6.702 0,15.456 0,22.43 0,0.123 1.602,1.309 0.378,1.865 -14.565,-12.622 -24.129,-33.027 -22.725,-52.587 15.638,-8.819 31.275,-17.992 42.945,-31.892 2.481,4.997 1.927,10.526 0.927,15.878 -3.232,17.284 -19.585,25.182 -21.525,44.306 M -10.322,14.381 -10.315,8.4 C 4.906,23.784 30.059,14.019 33.484,-6.55 l 5.577,11.622 c -1.058,17.04 -1.436,34.275 1.164,51.175 3.516,-5.508 6.417,-11.364 10.252,-16.681 13.505,-18.723 32.619,-28.907 53.025,-38.643 0.838,24.241 13.635,50.308 35.947,61.309 -1.497,-13.473 -3.9,-27.122 -0.517,-40.525 3.877,-15.361 19.83,-23.428 20.004,-40.223 9.518,13.629 21.948,21.928 39.302,20.179 7.799,-0.785 18.79,-6.354 22.233,-13.691 1.035,-2.205 1.211,-5.807 2.656,-7.275 4.571,-4.645 15.009,-4.946 20.73,-6.761 0.835,-0.264 1.811,-0.251 1.943,-1.416 -22.23,-5.38 -50.953,-22.749 -57.89,-45.765 -0.959,-3.181 -1.109,-6.688 -2.077,-9.889 -14.831,-49.017 -53.009,-51.027 -97.171,-41.048 -3.677,0.83 -9.694,3.553 -13.036,3.089 -5.415,-0.751 -16.68,-9.647 -21.15,-13.331 -2.185,-1.801 -12.339,-11.845 -13.528,-11.968 -5.453,-0.564 -13.304,12.305 -15.465,16.705 -3.145,6.404 -10.03,27.219 -6.98,33.42 0.742,1.508 12.399,9.435 14.671,10.774 13.684,8.069 29.169,12.734 44.87,15.01 -9.477,6.58 -15.67,14.179 -22.026,23.618 -1.176,1.747 -3.543,7.128 -4.38,7.964 -0.782,0.781 -4.766,2.322 -6.477,3.627 -5.691,4.339 -9.239,10.1 -11.677,16.754 -3.552,-20.703 -27.317,-29.504 -43.806,-16.445 v -31.402 h -18.723 v 80.748 z" /></g><g
           transform="translate(140.6521,63.0407)"
           id="g24"><path
             id="path26"
             style="fill:#000000;fill-opacity:1;fill-rule:nonzero;stroke:none"
             d="M 0,0 C -15.056,-2.174 -13.615,-26.189 2.776,-25.272 20.23,-24.296 17.021,2.458 0,0 m -27.692,99.42 c -16.249,-1.91 -13.985,-27.262 3.462,-25.182 15.108,1.802 13.319,27.155 -3.462,25.182 m -1.334,-67.86 c -11.038,-0.673 -24.357,4.137 -27.709,15.691 l 15.611,6.635 c 1.828,-4.487 7.748,-6.038 12.094,-6.63 l -10e-4,3.003 c 11.526,-1.446 15.862,1.501 14.975,13.451 -14.026,-10.546 -35.666,-5.539 -42.295,11.226 -8.972,22.694 10.428,48.067 34.804,38.484 2.857,-1.123 4.792,-3.032 7.495,-4.098 l 0.004,4.482 H 4.674 V 55.112 c 0,-0.776 -1.663,-6.466 -2.108,-7.615 -2.486,-6.426 -7.158,-9.915 -12.87,-13.32 V 9.13 C 13.837,28.556 42.734,3.294 31.999,-24.505 25.284,-41.892 2.824,-46.939 -10.296,-33.487 l -0.008,-5.981 h -18.722 z" /></g><g
           transform="translate(72.5198,63.0208)"
           id="g28"><path
             id="path30"
             style="fill:#000000;fill-opacity:1;fill-rule:nonzero;stroke:none"
             d="M 0,0 C -16.249,-1.91 -13.985,-27.263 3.462,-25.182 18.57,-23.381 16.781,1.973 0,0 m 13.644,-39.448 -0.008,5.981 c -13.029,-13.801 -36.117,-7.899 -42.51,9.515 -10.09,27.481 18.702,52.522 42.51,33.102 l 0.008,5.234 h 18.722 v -53.832 z" /></g><g
           transform="translate(46.3099,162.4638)"
           id="g32"><path
             id="path34"
             style="fill:#000000;fill-opacity:1;fill-rule:nonzero;stroke:none"
             d="M 0,0 C -15.404,-1.654 -14.392,-27.351 3.461,-25.186 19.416,-23.25 17.005,1.825 0,0 m 13.642,-39.451 -0.007,5.233 C -6.324,-50.558 -31.872,-35.81 -30.575,-10.63 -29.614,8.033 -11.884,21.085 6.143,13.997 9,12.874 10.936,10.965 13.638,9.899 l 0.004,4.482 h 18.723 v -53.832 z" /></g><g
           transform="translate(171.8002,140.4728)"
           id="g36"><path
             id="path38"
             style="fill:#000000;fill-opacity:1;fill-rule:nonzero;stroke:none"
             d="M 0,0 C 8.07,-7.562 21.792,-1.664 21.516,9.83 21.239,21.343 6.744,26.246 -0.659,17.703 -4.587,13.171 -4.404,4.127 0,0 m 21.456,-17.46 -0.008,5.981 C 6.644,-26.111 -17.398,-18.547 -22.36,1.226 c -6.72,26.777 20.005,47.506 43.059,30.66 l 0.008,4.486 H 39.429 V -17.46 Z" /></g><g
           transform="translate(219.4119,75.0977)"
           id="g40"><path
             id="path42"
             style="fill:#000000;fill-opacity:1;fill-rule:nonzero;stroke:none"
             d="m 0,0 -5.197,-12.646 c -5.548,2.665 -10.485,3.719 -16.732,2.883 -5.23,-6.657 9.299,-7.885 13.988,-10.493 14.894,-8.284 11.655,-27.491 -4.73,-31.649 -9.947,-2.523 -25.373,-1.76 -32.112,6.595 l 6.655,11.728 c 6.381,-2.33 12.629,-8.954 19.498,-3.995 1.565,6.311 -8.797,7.624 -13.457,10.411 -6.45,3.859 -10.043,8.352 -8.978,16.326 C -38.797,6.16 -11.795,6.153 0,0" /></g><path
           id="path44"
           style="fill:#000000;fill-opacity:1;fill-rule:nonzero;stroke:none"
           d="M 38.234,23.572 H 19.512 v 89.721 h 18.722 z" /></g></g></g></svg>